<svg xmlns="http://www.w3.org/2000/svg" xmlns:xlink="http://www.w3.org/1999/xlink" width="66" height="66" viewBox="0 0 66 66">
    <defs>
        <filter id="sye0iubt3a" width="159.4%" height="159.4%" x="-29.7%" y="-21.4%" filterUnits="objectBoundingBox">
            <feMorphology in="SourceAlpha" operator="dilate" radius=".25" result="shadowSpreadOuter1"/>
            <feOffset dy="4" in="shadowSpreadOuter1" result="shadowOffsetOuter1"/>
            <feMorphology in="SourceAlpha" radius="1" result="shadowInner"/>
            <feOffset dy="4" in="shadowInner" result="shadowInner"/>
            <feComposite in="shadowOffsetOuter1" in2="shadowInner" operator="out" result="shadowOffsetOuter1"/>
            <feGaussianBlur in="shadowOffsetOuter1" result="shadowBlurOuter1" stdDeviation="4"/>
            <feColorMatrix in="shadowBlurOuter1" result="shadowMatrixOuter1" values="0 0 0 0 0.0562383776 0 0 0 0 0.121895047 0 0 0 0 0.209437274 0 0 0 0.08 0"/>
            <feMorphology in="SourceAlpha" operator="dilate" radius=".25" result="shadowSpreadOuter2"/>
            <feOffset dy="1" in="shadowSpreadOuter2" result="shadowOffsetOuter2"/>
            <feMorphology in="SourceAlpha" radius="1" result="shadowInner"/>
            <feOffset dy="1" in="shadowInner" result="shadowInner"/>
            <feComposite in="shadowOffsetOuter2" in2="shadowInner" operator="out" result="shadowOffsetOuter2"/>
            <feGaussianBlur in="shadowOffsetOuter2" result="shadowBlurOuter2" stdDeviation="2"/>
            <feColorMatrix in="shadowBlurOuter2" result="shadowMatrixOuter2" values="0 0 0 0 0.0562383776 0 0 0 0 0.121895047 0 0 0 0 0.209437274 0 0 0 0.12 0"/>
            <feMerge>
                <feMergeNode in="shadowMatrixOuter1"/>
                <feMergeNode in="shadowMatrixOuter2"/>
            </feMerge>
        </filter>
        <circle id="07kl7dwcyb" cx="24" cy="24" r="24"/>
    </defs>
    <g fill="none" fill-rule="evenodd">
        <g>
            <g>
                <g transform="translate(-1319 -38) translate(1328 43)">
                    <use fill="#000" filter="url(#sye0iubt3a)" xlink:href="#07kl7dwcyb"/>
                    <use stroke="#FFB700" stroke-width=".5" xlink:href="#07kl7dwcyb"/>
                </g>
                <path d="M15 15L34 15 34 34 15 34z" transform="translate(-1319 -38) translate(1328 43)"/>
                <path fill="#FFB700" fill-rule="nonzero" d="M25.895 26.478v1.653c-1.45-.514-3.059-.29-4.314.6-1.256.889-2.002 2.333-2.002 3.874L18 32.604c0-1.957.903-3.804 2.448-5.002 1.544-1.198 3.555-1.614 5.447-1.124zm-1.58-.99c-2.616 0-4.736-2.123-4.736-4.744 0-2.621 2.12-4.744 4.737-4.744s4.737 2.123 4.737 4.744c0 2.621-2.12 4.744-4.737 4.744zm0-1.581c1.746 0 3.159-1.415 3.159-3.163 0-1.747-1.413-3.163-3.158-3.163-1.745 0-3.158 1.416-3.158 3.163 0 1.748 1.413 3.163 3.158 3.163zm4.738 4.744v-2.767L33 29.442 29.053 33v-2.767h-2.369V28.65h2.369z" transform="translate(-1319 -38) translate(1328 43)"/>
            </g>
        </g>
    </g>
</svg>
