<svg xmlns="http://www.w3.org/2000/svg" width="21" height="24" viewBox="0 0 21 24">
    <defs>
        <linearGradient id="gx9rqf5haa" x1="261.486%" x2="-563.988%" y1="-232.143%" y2="667.4%">
            <stop offset="0%" stop-color="#DD6A2A"/>
            <stop offset="100%" stop-color="#EEAF2B"/>
        </linearGradient>
        <linearGradient id="plsuqafgab" x1="-4.31%" x2="126.24%" y1="118.297%" y2="-30.396%">
            <stop offset="0%" stop-color="#DD6A2A"/>
            <stop offset="100%" stop-color="#EEAF2B"/>
        </linearGradient>
    </defs>
    <g fill="none" fill-rule="evenodd">
        <g fill-rule="nonzero">
            <g>
                <path fill="url(#gx9rqf5haa)" d="M12.91 12.463c-.39.91-1.294 1.558-2.357 1.558-1.4 0-2.551-1.12-2.551-2.521 0-1.383 1.134-2.521 2.551-2.521 1.063 0 1.967.647 2.356 1.558H15C14.557 8.506 12.732 7 10.553 7 8.037 7 6 9.014 6 11.5S8.037 16 10.553 16c2.18 0 4.004-1.506 4.447-3.537h-2.09z" transform="translate(-179 -254) translate(179 254)"/>
                <path fill="url(#plsuqafgab)" d="M12.106.43C11.618.143 11.05 0 10.5 0c-.551 0-1.102.143-1.606.43L0 5.618v10.393c0 1.161.614 2.228 1.606 2.8L10.5 24l8.894-5.188C20.386 18.239 21 17.156 21 16.01V5.618L12.106.43zm6.58 17.14L10.5 22.345l-5.84-3.406V8.324l4.045-2.372-1.542-.891L3.1 7.432v10.616l-.803-.478c-.55-.318-.897-.923-.897-1.575V6.43l5.84-3.406 9.084 5.3.015 4.726 1.543-.89V7.431L8.8 2.132l.803-.46c.267-.16.582-.24.897-.24.315 0 .63.08.897.24l8.186 4.774v6.827l-9.083 5.3-4.061-2.355v1.798l4.061 2.371 9.083-5.3v.924c0 .636-.346 1.241-.897 1.56z" transform="translate(-179 -254) translate(179 254)"/>
            </g>
        </g>
    </g>
</svg>
