<?xml version="1.0" encoding="UTF-8"?>
<svg width="15px" height="16px" viewBox="0 0 15 16" version="1.1" xmlns="http://www.w3.org/2000/svg" xmlns:xlink="http://www.w3.org/1999/xlink">
    <title>Group 21</title>
    <g id="Development-version" stroke="none" stroke-width="1" fill="none" fill-rule="evenodd">
        <g id="Cabinet-With-Game" transform="translate(-151.000000, -1631.000000)" fill="#FFFFFF" fill-rule="nonzero">
            <g id="Group-50" transform="translate(32.000000, 1421.000000)">
                <g id="Group-37" transform="translate(32.000000, 91.000000)">
                    <g id="Group-35" transform="translate(49.000000, 94.000000)">
                        <g id="Group-34" transform="translate(5.000000, 19.000000)">
                            <g id="Group-21" transform="translate(33.000000, 6.000000)">
                                <path d="M9.10629921,8.64202335 C8.84645669,9.24902724 8.24409449,9.68093385 7.53543307,9.68093385 C6.6023622,9.68093385 5.83464567,8.93385214 5.83464567,8 C5.83464567,7.07782101 6.59055118,6.31906615 7.53543307,6.31906615 C8.24409449,6.31906615 8.84645669,6.75097276 9.10629921,7.35797665 L10.5,7.35797665 C10.2047244,6.00389105 8.98818898,5 7.53543307,5 C5.85826772,5 4.5,6.34241245 4.5,8 C4.5,9.65758755 5.85826772,11 7.53543307,11 C8.98818898,11 10.2047244,9.99610895 10.5,8.64202335 L9.10629921,8.64202335 Z" id="Path"></path>
                                <path d="M8.57046477,0.286472149 C8.24512744,0.0954907162 7.86731634,0 7.5,0 C7.13268366,0 6.76536732,0.0954907162 6.42953523,0.286472149 L0.5,3.74535809 L0.5,10.6737401 C0.5,11.4482759 0.909295352,12.1591512 1.57046477,12.5411141 L7.5,16 L13.4295352,12.5411141 C14.0907046,12.1591512 14.5,11.4376658 14.5,10.6737401 L14.5,3.74535809 L8.57046477,0.286472149 Z M12.9572714,11.7135279 L7.5,14.8965517 L3.60644678,12.6259947 L3.60644678,5.54907162 L6.3035982,3.96816976 L5.27511244,3.37400531 L2.56746627,4.95490716 L2.56746627,12.0318302 L2.03223388,11.7135279 C1.66491754,11.5013263 1.43403298,11.0981432 1.43403298,10.66313 L1.43403298,4.28647215 L5.32758621,2.01591512 L11.3830585,5.54907162 L11.3935532,8.70026525 L12.422039,8.1061008 L12.422039,4.95490716 L6.36656672,1.42175066 L6.9017991,1.11405836 C7.0802099,1.00795756 7.29010495,0.954907162 7.5,0.954907162 C7.70989505,0.954907162 7.9197901,1.00795756 8.0982009,1.11405836 L13.5554723,4.29708223 L13.5554723,8.84880637 L7.5,12.3819629 L4.79235382,10.8116711 L4.79235382,12.0106101 L7.5,13.5915119 L13.5554723,10.0583554 L13.5554723,10.6737401 C13.5554723,11.0981432 13.3245877,11.5013263 12.9572714,11.7135279 Z" id="Shape"></path>
                            </g>
                        </g>
                    </g>
                </g>
            </g>
        </g>
    </g>
</svg>