<svg xmlns="http://www.w3.org/2000/svg" width="19" height="19" viewBox="0 0 19 19">
    <g fill="none" fill-rule="evenodd">
        <g>
            <g transform="translate(-596 -347) translate(596 347)">
                <circle cx="9.5" cy="9.5" r="9.5" fill="#FFB700"/>
                <path fill="#FFF" fill-rule="nonzero" d="M12.854 8.87h-2.89l.555-3.682c.01-.073-.024-.144-.084-.174-.06-.03-.132-.01-.174.046l-4.229 5.807c-.035.048-.042.114-.018.17.024.056.076.092.132.092h2.89l-.555 3.683c-.01.073.024.144.084.174.02.01.04.014.06.014.043 0 .085-.021.114-.06l4.229-5.807c.035-.048.042-.115.018-.17-.025-.056-.076-.092-.132-.092z"/>
            </g>
        </g>
    </g>
</svg>
