<svg xmlns="http://www.w3.org/2000/svg" width="34" height="34" viewBox="0 0 34 34">
    <g fill="none" fill-rule="evenodd" opacity=".5">
        <g>
            <g>
                <path d="M0 0L34 0 34 34 0 34z" transform="translate(-1342 -58) translate(1342 58)"/>
                <path fill="#FFF" fill-rule="nonzero" d="M13.857 15.6v-4.2L21 17l-7.143 5.6v-4.2H1v-2.8h12.857zM3.083 21.2h3.034c2.057 4.963 7.41 7.806 12.777 6.783 5.365-1.024 9.241-5.626 9.249-10.983.003-5.363-3.874-9.976-9.246-11-5.372-1.024-10.73 1.827-12.78 6.8H3.083C4.903 7.12 10.317 3 16.714 3 24.604 3 31 9.268 31 17s-6.396 14-14.286 14c-6.397 0-11.811-4.12-13.631-9.8z" transform="translate(-1342 -58) translate(1342 58)"/>
            </g>
        </g>
    </g>
</svg>
