<svg xmlns="http://www.w3.org/2000/svg" xmlns:xlink="http://www.w3.org/1999/xlink" width="164" height="55" viewBox="0 0 164 55">
    <defs>
        <path id="bzwr9z7uxb" d="M32.976 26.798c1.115-.644 1.115-2.253 0-2.897L14.922 13.45c-1.035-.598-2.311-.598-3.346 0l-1.614.932c-1.115.644-1.115 2.254 0 2.897l18.053 10.45c1.035.598 2.31.598 3.346 0l1.615-.932z"/>
        <path id="n26o97clad" d="M43.076 21.145l1.614-.932c1.115-.644 1.115-2.254 0-2.898L26.636 6.865c-1.035-.597-2.311-.597-3.346 0l-1.614.933c-1.115.643-1.115 2.253 0 2.897l18.054 10.45c1.035.598 2.31.598 3.346 0"/>
        <path id="jfnsqllw3e" d="M14.701 20.364c11.657 0 13.479-5.54 13.479-8.098v-.422h-7.65c-.104.448-.677 3.218-6.375 3.218-5.204 0-6.505-2.77-6.505-4.88v-.317c0-2.19 1.145-4.59 6.479-4.59 5.62 0 6.219 2.48 6.375 3.008h7.676V7.94C28.18 5.407 26.462 0 14.7 0h-1.014C1.613 0 0 5.988 0 9.733v.765c0 3.72 1.795 9.866 13.687 9.866H14.7zm29.299 0c11.657 0 13.478-5.54 13.478-8.098v-.422h-7.65c-.104.448-.676 3.218-6.374 3.218-5.204 0-6.505-2.77-6.505-4.88v-.317c0-2.19 1.144-4.59 6.479-4.59 5.62 0 6.218 2.48 6.374 3.008h7.676V7.94C57.478 5.407 55.761 0 44 0h-1.015C30.912 0 29.3 5.988 29.3 9.733v.765c0 3.72 1.795 9.866 13.686 9.866H44zm29.897 0C86.413 20.364 88 14.19 88 10.524v-.79C88 6.04 86.387 0 73.897 0h-1.17c-12.542 0-14.13 6.04-14.13 9.733v.792c0 3.666 1.588 9.839 14.13 9.839h1.17zm-.598-5.302c-5.725 0-7.052-2.77-7.052-4.827v-.317c0-2.084 1.223-4.642 7.052-4.642 5.724 0 7.051 2.558 7.051 4.642v.37c0 2.11-1.327 4.774-7.051 4.774z"/>
        <linearGradient id="r55a3rzo0f" x1="-20.935%" x2="16.996%" y1="53.657%" y2="45.461%">
            <stop offset="0%" stop-color="#DD6A2A"/>
            <stop offset="100%" stop-color="#EEAF2B"/>
        </linearGradient>
        <linearGradient id="yw3ktdpqgg" x1="50%" x2="50%" y1="0%" y2="179.526%">
            <stop offset="0%" stop-color="#FFF"/>
            <stop offset="100%" stop-color="#262626"/>
        </linearGradient>
        <filter id="s2gxqhyqca" width="298.5%" height="422.9%" x="-99.2%" y="-115.3%" filterUnits="objectBoundingBox">
            <feOffset dy="7" in="SourceAlpha" result="shadowOffsetOuter1"/>
            <feGaussianBlur in="shadowOffsetOuter1" result="shadowBlurOuter1" stdDeviation="7"/>
            <feComposite in="shadowBlurOuter1" in2="SourceAlpha" operator="out" result="shadowBlurOuter1"/>
            <feColorMatrix in="shadowBlurOuter1" values="0 0 0 0 0 0 0 0 0 0 0 0 0 0 0 0 0 0 0.116449956 0"/>
        </filter>
        <filter id="7nzurcan8c" width="298.5%" height="422.9%" x="-99.2%" y="-115.3%" filterUnits="objectBoundingBox">
            <feOffset dy="7" in="SourceAlpha" result="shadowOffsetOuter1"/>
            <feGaussianBlur in="shadowOffsetOuter1" result="shadowBlurOuter1" stdDeviation="7"/>
            <feComposite in="shadowBlurOuter1" in2="SourceAlpha" operator="out" result="shadowBlurOuter1"/>
            <feColorMatrix in="shadowBlurOuter1" values="0 0 0 0 0 0 0 0 0 0 0 0 0 0 0 0 0 0 0.116449956 0"/>
        </filter>
    </defs>
    <g fill="none" fill-rule="evenodd">
        <g>
            <g>
                <g>
                    <path fill="#F9E826" d="M52.808 20.323c1.612-3.56.514-8.11-3.3-10.313L37.052 2.815C30.706-.85 22.887-.85 16.54 2.815L4.084 10.01C.27 12.212-.828 16.764.784 20.323c-.957 2.115-.957 4.58 0 6.694-.957 2.116-.957 4.58 0 6.695-1.612 3.56-.514 8.11 3.3 10.313l12.457 7.194c6.346 3.665 14.165 3.665 20.51 0l12.457-7.194c3.814-2.202 4.912-6.754 3.3-10.313.958-2.115.958-4.58 0-6.695.958-2.115.958-4.579 0-6.694" transform="translate(-27 -47) translate(32 48) translate(.052)"/>
                    <path fill="#EEAF2B" d="M52.81 33.712c-.656 1.442-1.757 2.724-3.303 3.618l-12.455 7.197c-6.347 3.662-14.164 3.662-20.512 0L4.086 37.33c-1.546-.894-2.647-2.176-3.303-3.618.592-1.306 1.546-2.477 2.868-3.347.14.093.284.184.435.27l12.454 7.197c6.348 3.662 14.165 3.662 20.512 0l12.455-7.196c.15-.087.294-.178.435-.271 1.322.87 2.275 2.041 2.868 3.347" transform="translate(-27 -47) translate(32 48) translate(.052)"/>
                    <path fill="#F9E826" d="M3.65 30.365c-1.321.87-2.275 2.041-2.867 3.347-.96-2.116-.96-4.58 0-6.695.592 1.306 1.546 2.477 2.868 3.348M52.81 33.712c-.593-1.306-1.546-2.477-2.868-3.347 1.322-.87 2.275-2.042 2.868-3.348.96 2.116.96 4.58 0 6.695" transform="translate(-27 -47) translate(32 48) translate(.052)"/>
                    <path fill="#F9E826" d="M52.81 27.017c-.593 1.306-1.546 2.477-2.868 3.348-.14-.094-.285-.184-.435-.272l-5.324-3.076 5.324-3.076c.15-.087.294-.177.435-.27 1.322.87 2.275 2.041 2.868 3.346" transform="translate(-27 -47) translate(32 48) translate(.052)"/>
                    <path fill="#E6872D" d="M49.942 30.365c-.14.093-.285.184-.435.27l-12.455 7.197c-6.347 3.662-14.164 3.662-20.512 0L4.086 30.636c-.15-.087-.295-.178-.435-.271.14-.094.284-.184.435-.272l5.323-3.076 7.131 4.12c6.348 3.663 14.165 3.663 20.512 0l7.131-4.12 5.324 3.076c.15.088.294.178.435.272" transform="translate(-27 -47) translate(32 48) translate(.052)"/>
                    <path fill="#EDAD2B" d="M9.41 27.017l-5.324 3.076c-.151.088-.295.178-.435.272-1.322-.87-2.276-2.042-2.868-3.348.592-1.305 1.546-2.476 2.868-3.347.14.094.284.184.435.271l5.323 3.076z" transform="translate(-27 -47) translate(32 48) translate(.052)"/>
                    <path fill="#F9E826" d="M3.65 23.67c-1.321.87-2.275 2.042-2.867 3.347-.96-2.115-.96-4.578 0-6.694.592 1.306 1.546 2.477 2.868 3.347M52.81 27.017c-.593-1.305-1.546-2.476-2.868-3.347 1.322-.87 2.275-2.042 2.868-3.347.96 2.115.96 4.579 0 6.694" transform="translate(-27 -47) translate(32 48) translate(.052)"/>
                    <path fill="#EEAF2B" d="M52.81 27.017c-.593 1.306-1.546 2.477-2.868 3.348-.14-.094-.285-.184-.435-.272l-5.324-3.076 5.324-3.076c.15-.087.294-.177.435-.27 1.322.87 2.275 2.041 2.868 3.346" transform="translate(-27 -47) translate(32 48) translate(.052)"/>
                    <path fill="#F9E826" d="M52.81 20.323c-.656-1.443-1.757-2.725-3.303-3.618L37.052 9.508c-6.347-3.661-14.164-3.661-20.512 0L4.086 16.705c-1.546.893-2.647 2.175-3.303 3.618C-.83 16.765.27 12.213 4.086 10.01L16.54 2.814c6.348-3.662 14.165-3.662 20.512 0l12.455 7.196c3.814 2.203 4.915 6.755 3.303 10.313" transform="translate(-27 -47) translate(32 48) translate(.052)"/>
                    <path fill="#EEAF2B" d="M52.81 20.323c-.593 1.305-1.546 2.477-2.868 3.347-.14-.094-.285-.184-.435-.27l-12.455-7.197c-6.347-3.662-14.164-3.662-20.512 0L4.086 23.399c-.15.087-.295.177-.435.271-1.322-.87-2.276-2.042-2.868-3.347.656-1.443 1.757-2.725 3.303-3.618L16.54 9.508c6.348-3.661 14.165-3.661 20.512 0l12.455 7.197c1.546.893 2.647 2.175 3.303 3.618" transform="translate(-27 -47) translate(32 48) translate(.052)"/>
                    <path fill="#E6872D" d="M49.942 23.67c-.14.094-.285.184-.435.271l-5.324 3.076-7.13-4.12c-6.348-3.662-14.165-3.662-20.513 0l-7.13 4.12-5.324-3.076c-.15-.087-.295-.177-.435-.27.14-.094.284-.185.435-.272l12.454-7.196c6.348-3.662 14.165-3.662 20.512 0l12.455 7.196c.15.087.294.178.435.271" transform="translate(-27 -47) translate(32 48) translate(.052)"/>
                    <path fill="#E06C2B" d="M44.183 27.017l-7.13 4.12c-6.348 3.663-14.165 3.663-20.513 0l-7.13-4.12 7.13-4.12c6.348-3.662 14.165-3.662 20.512 0l7.131 4.12z" transform="translate(-27 -47) translate(32 48) translate(.052)"/>
                    <g transform="translate(-27 -47) translate(32 48) translate(.052)">
                        <use fill="#000" filter="url(#s2gxqhyqca)" xlink:href="#bzwr9z7uxb"/>
                        <use fill="#FFF" fill-opacity=".25" xlink:href="#bzwr9z7uxb"/>
                    </g>
                    <path fill="#FFF" d="M32.976 26.798c1.115-.644 1.115-2.253 0-2.897l-12.318-7.14c-1.035-.598-6.075 3.186-4.96 3.83l12.317 7.14c1.035.597 2.31.597 3.346 0l1.615-.933z" transform="translate(-27 -47) translate(32 48) translate(.052)"/>
                    <g transform="translate(-27 -47) translate(32 48) translate(.052)">
                        <use fill="#000" filter="url(#7nzurcan8c)" xlink:href="#n26o97clad"/>
                        <use fill="#FFF" fill-opacity=".25" xlink:href="#n26o97clad"/>
                    </g>
                    <path fill="#FFF" d="M44.69 20.213c1.115-.644 1.115-2.254 0-2.898l-5.167-3.007c-1.035-.598-6.075 3.186-4.96 3.83l5.167 3.007c1.035.598 2.31.598 3.346 0l1.614-.932z" transform="translate(-27 -47) translate(32 48) translate(.052)"/>
                </g>
                <g fill-rule="nonzero">
                    <g transform="translate(-27 -47) translate(32 48) translate(71 11)">
                        <use fill="#000" xlink:href="#jfnsqllw3e"/>
                        <use fill="url(#r55a3rzo0f)" xlink:href="#jfnsqllw3e"/>
                    </g>
                    <path fill="url(#yw3ktdpqgg)" d="M3.657 32c.687 0 1.308-.147 1.864-.44.555-.295.99-.7 1.304-1.214.313-.515.47-1.095.47-1.74s-.157-1.224-.47-1.74c-.314-.515-.749-.92-1.304-1.213-.556-.294-1.177-.44-1.864-.44-.692 0-1.317.146-1.872.44-.556.294-.992.7-1.31 1.218C.16 27.39 0 27.968 0 28.606c0 .638.159 1.217.476 1.735.317.518.753.924 1.309 1.218.555.294 1.18.441 1.872.441zm0-.876c-.516 0-.983-.11-1.402-.327-.42-.219-.748-.52-.986-.904s-.357-.813-.357-1.287.119-.903.357-1.287c.238-.384.567-.685.986-.903.419-.219.886-.328 1.403-.328.516 0 .98.11 1.393.328.412.218.737.52.975.903.238.384.357.813.357 1.287s-.119.903-.357 1.287c-.238.384-.563.685-.975.904-.413.218-.877.327-1.393.327zM19.68 32v-4.899L23.814 32h.808v-6.569h-.985v4.899l-4.135-4.899h-.808V32h.985zm21.585 0v-.816h-3.788V25.43h-1V32h4.788zm11.855 0v-6.569h-.912V32h.912zm13.068 0v-4.899L70.322 32h.808v-6.569h-.985v4.899l-4.136-4.899h-.807V32h.985zM88 32v-.816h-4.028v-2.121h3.465v-.798h-3.465v-2.017h3.89v-.817h-4.878V32H88z" transform="translate(-27 -47) translate(32 48) translate(71 11)"/>
                </g>
            </g>
        </g>
    </g>
</svg>
