<?xml version="1.0" encoding="UTF-8"?>
<svg width="37px" height="47px" viewBox="0 0 37 47" version="1.1" xmlns="http://www.w3.org/2000/svg" xmlns:xlink="http://www.w3.org/1999/xlink">
    <title>Path</title>
    <g id="Development-version" stroke="none" stroke-width="1" fill="none" fill-rule="evenodd">
        <g id="Cabinet-With-Game" transform="translate(-1217.000000, -906.000000)" fill="#FFFFFF" fill-rule="nonzero">
            <g id="Group-23" transform="translate(1095.000000, 801.000000)">
                <g id="Group-19" transform="translate(56.000000, 44.000000)">
                    <g id="Stule-C" transform="translate(25.941592, 25.730104)">
                        <path d="M75.6081182,53.4675432 L60.9365556,53.4675432 L63.7540523,36.3431958 C63.8095731,36.0064832 63.6341273,35.6750201 63.3269121,35.5355356 C63.0204372,35.3960511 62.6591817,35.4845412 62.4474623,35.7492618 L40.9794106,62.7462622 C40.8002634,62.9712372 40.7647301,63.2802029 40.8883565,63.540424 C41.0105023,63.800645 41.2703397,63.9663766 41.5553466,63.9663766 L56.2269092,63.9663766 L53.4094125,81.090724 C53.3538917,81.4274365 53.5293375,81.7588997 53.8365527,81.8983842 C53.9350097,81.9433792 54.0379083,81.9643769 54.1400666,81.9643769 C54.3591888,81.9643769 54.573129,81.8661378 54.7167429,81.684658 L76.1847945,54.6876576 C76.3639417,54.4626826 76.399475,54.1537169 76.2758487,53.8934958 C76.1529626,53.6332747 75.8931251,53.4675432 75.6081182,53.4675432 Z" id="Path"></path>
                    </g>
                </g>
            </g>
        </g>
    </g>
</svg>