<svg xmlns="http://www.w3.org/2000/svg" width="75" height="75" viewBox="0 0 75 75">
    <g fill="none" fill-rule="evenodd">
        <g>
            <g>
                <g>
                    <g transform="translate(-667 -1840) translate(31 1840) translate(549) translate(87)">
                        <circle cx="37.5" cy="37.5" r="37.5" fill="#6C809A"/>
                        <g>
                            <path d="M0 0L31 0 31 31 0 31z" transform="translate(22 22)"/>
                            <path fill="#FFF" fill-rule="nonzero" d="M15.5 25.5c5.523 0 10-4.477 10-10s-4.477-10-10-10-10 4.477-10 10 4.477 10 10 10zm0 2.5C8.596 28 3 22.404 3 15.5S8.596 3 15.5 3 28 8.596 28 15.5 22.404 28 15.5 28zm-3.887-11.038L8.49 15.99c-.675-.207-.679-.671.151-1.005l12.167-4.7c.706-.288 1.106.076.877.987l-2.071 9.775c-.145.697-.564.863-1.145.541l-3.189-2.36-1.486 1.436c-.153.147-.277.273-.511.305-.234.032-.427-.038-.568-.425l-1.088-3.59-.014.01z" transform="translate(22 22)"/>
                        </g>
                    </g>
                </g>
            </g>
        </g>
    </g>
</svg>
