<svg xmlns="http://www.w3.org/2000/svg" width="19" height="19" viewBox="0 0 19 19">
    <g fill="none" fill-rule="evenodd">
        <g>
            <g transform="translate(-750 -347) translate(750 347)">
                <circle cx="9.5" cy="9.5" r="9.5" fill="#FFB700"/>
                <g>
                    <path d="M0 0L11 0 11 11 0 11z" transform="translate(3 3)"/>
                    <path fill="#FFF" fill-rule="nonzero" d="M2.75 11c0-2.025 1.539-3.667 3.438-3.667 1.898 0 3.437 1.642 3.437 3.667h-.86c0-1.519-1.154-2.75-2.578-2.75C4.764 8.25 3.61 9.481 3.61 11H2.75zm3.438-4.125c-1.425 0-2.579-1.23-2.579-2.75s1.154-2.75 2.579-2.75c1.424 0 2.578 1.23 2.578 2.75s-1.154 2.75-2.579 2.75zm0-.917c.95 0 1.718-.82 1.718-1.833s-.769-1.833-1.718-1.833c-.95 0-1.72.82-1.72 1.833s.77 1.833 1.72 1.833z" transform="translate(3 3)"/>
                </g>
            </g>
        </g>
    </g>
</svg>
