<svg xmlns="http://www.w3.org/2000/svg" width="159" height="244" viewBox="0 0 159 244">
    <defs>
        <linearGradient id="1mu2ne8yja" x1="-4.07%" x2="125.903%" y1="118.297%" y2="-30.396%">
            <stop offset="0%" stop-color="#DD6A2A"/>
            <stop offset="100%" stop-color="#EEAF2B"/>
        </linearGradient>
    </defs>
    <g fill="none" fill-rule="evenodd" opacity=".1">
        <g fill="url(#1mu2ne8yja)" fill-rule="nonzero" transform="translate(-32 -158)">
            <g>
                <path d="M39.562-34.217C33.01-38.072 25.4-40 18-40c-7.399 0-14.798 1.928-21.562 5.783L-123 35.61v139.867c0 15.636 8.244 29.987 21.562 37.698L18 283l119.438-69.826C150.756 205.463 159 190.898 159 175.476V35.61L39.562-34.217zm89.396 231.833L19.106 262l-78.376-45.927V72.927L-4.977 40.95l-20.704-12.018-54.503 31.977v143.146l-10.774-6.439C-98.352 193.324-103 185.17-103 176.37V47.388l78.376-45.927L97.27 72.927l.211 63.74 20.703-12.019v-63.74L-3.71-10.556l10.774-6.224C10.655-18.927 14.881-20 19.106-20s8.45 1.073 12.041 3.22L141 47.602v92.068L19.106 211.137l-54.504-31.763v24.252l54.504 31.977L141 164.137v12.447c0 8.585-4.648 16.74-12.042 21.032z" transform="translate(32 158)"/>
            </g>
        </g>
    </g>
</svg>
